# xmcd
#
# Track frame offsets:
# 150
# 8913
# 25807
# 42580
# 60054
# 76873
# 91359
# 107440
# 121075
# 138658
# 152304
# 167950
# 182481
# 201851
# 219323
# 235100
# 249795
# 262051
# 275314
# 289216
# 307781
#
# Disc length: 4302 seconds
#
#
# Revision: 0
# Processed by: cddbd v1.5.1PL0 Copyright (c) Steve Scherf et al.
# Submitted via: FreeRIP 2.70 
#
DISCID=0a10cc15
DTITLE=Rita de Cassia and Redondo - Rita de Cassia and Redondo - Ao Vivo
DYEAR=1900
DGENRE=
TTITLE0=Abertura
TTITLE1=Brilho da Lua/Sonho Real
TTITLE2=Ultimo Verao/Nossa Cancao
TTITLE3=Raizes do Nordeste/No Voo da Asa Branca
TTITLE4=Mulher de Gado/Vaqueiro Afamado
TTITLE5=Brasileiro Arrochado/Vida de Vaqueiro
TTITLE6=De Onde Veio/Pedaco de Solidao
TTITLE7=Se Formos Um do Outro/Sinto a Tua Falta
TTITLE8=Um Ponto X a Mais
TTITLE9=So se Casar/Desculpa Esfarrapada
TTITLE10=Carinho e Cafune/Pensamentos Meus
TTITLE11=Pirada/Da de Pau no Meu Coracao
TTITLE12=Sao Joao na Terra/Quero Ser Seu Gado/Cabra Namorador
TTITLE13=Explodindo de Paixao/Sou Canto Sertao
TTITLE14=Asas da Imaginacao
TTITLE15=Pra Viver Eternamente
TTITLE16=Um Belo Cinquentao
TTITLE17=Minha Deusa
TTITLE18=O Teu olhar me Fascina
TTITLE19=Musa do Meu Futebol
TTITLE20=Colcha de Retalho/Dedo Seguro
EXTD=
EXTT0=
EXTT1=
EXTT2=
EXTT3=
EXTT4=
EXTT5=
EXTT6=
EXTT7=
EXTT8=
EXTT9=
EXTT10=
EXTT11=
EXTT12=
EXTT13=
EXTT14=
EXTT15=
EXTT16=
EXTT17=
EXTT18=
EXTT19=
EXTT20=
PLAYORDER=
